<svg xmlns="http://www.w3.org/2000/svg" version="1.1" xmlns:xlink="http://www.w3.org/1999/xlink" xmlns:svgjs="http://svgjs.dev/svgjs" width="2000" height="792" viewBox="0 0 2000 792"><g transform="matrix(1,0,0,1,-1.2121212121212466,0.9552983527744914)"><svg viewBox="0 0 396 157" data-background-color="#f8f8f8" preserveAspectRatio="xMidYMid meet" height="792" width="2000" xmlns="http://www.w3.org/2000/svg" xmlns:xlink="http://www.w3.org/1999/xlink"><g id="tight-bounds" transform="matrix(1,0,0,1,0.2400000000000091,-0.18937101185049698)"><svg viewBox="0 0 395.52 157.378742023701" height="157.378742023701" width="395.52"><g><svg viewBox="0 0 395.52 157.378742023701" height="157.378742023701" width="395.52"><g><svg viewBox="0 0 395.52 157.378742023701" height="157.378742023701" width="395.52"><g id="textblocktransform"><svg viewBox="0 0 395.52 157.378742023701" height="157.378742023701" width="395.52" id="textblock"><g><svg viewBox="0 0 395.52 157.378742023701" height="157.378742023701" width="395.52"><g transform="matrix(1,0,0,1,0,0)"><svg width="395.52" viewBox="2.6 -35.5 106 43.65" height="157.378742023701" data-palette-color="#61777f"><g class="wordmark-text-0" data-fill-palette-color="primary" id="text-0"><path d="M22.85 4.8L22.85 8.15 18.25 8.15Q16.25 8.15 15.25 7.03 14.25 5.9 14.25 4.25L14.25 4.25 14.25 0.5Q8.7 0 5.65-4.38 2.6-8.75 2.6-17.45L2.6-17.45Q2.6-26.8 6.1-31.15 9.6-35.5 15.95-35.5L15.95-35.5Q22.3-35.5 25.8-31.15 29.3-26.8 29.3-17.45L29.3-17.45Q29.3-8.9 26.35-4.55 23.4-0.2 18.05 0.45L18.05 0.45 18.05 4.8 22.85 4.8ZM15.95-2.95L15.95-2.95Q20.3-2.95 22.65-5.83 25-8.7 25-13.55L25-13.55 25-21.35Q25-26.2 22.65-29.08 20.3-31.95 15.95-31.95L15.95-31.95Q11.6-31.95 9.25-29.08 6.9-26.2 6.9-21.35L6.9-21.35 6.9-13.55Q6.9-8.7 9.25-5.83 11.6-2.95 15.95-2.95Z" fill="#61777f" data-fill-palette-color="primary"></path><path d="M65.2 0L61.15-5.15 60.65-5.15Q60.5-4.1 59.87-3.08 59.25-2.05 58.25-1.23 57.25-0.4 55.87 0.1 54.5 0.6 52.85 0.6L52.85 0.6Q48.05 0.6 45.57-2 43.1-4.6 43.1-9.05L43.1-9.05Q43.1-12.65 44.82-15.03 46.55-17.4 49.5-18.9L49.5-18.9Q47.85-20.8 46.65-23.13 45.45-25.45 45.45-27.8L45.45-27.8Q45.45-31.4 47.57-33.45 49.7-35.5 53.45-35.5L53.45-35.5Q57.2-35.5 59.32-33.45 61.45-31.4 61.45-27.8L61.45-27.8Q61.45-26.15 60.95-24.83 60.45-23.5 59.55-22.38 58.65-21.25 57.42-20.25 56.2-19.25 54.7-18.35L54.7-18.35 61.6-9.75Q62.3-11.65 62.65-13.85 63-16.05 63.1-18.3L63.1-18.3 69.3-18.3 69.3-15.05 66.15-15.05Q65.5-10.65 63.9-7.35L63.9-7.35 70.1 0 65.2 0ZM53.45-32.35L53.45-32.35Q51.5-32.35 50.32-31.28 49.15-30.2 49.15-28.15L49.15-28.15 49.15-27.45Q49.15-25.9 50.17-24.03 51.2-22.15 52.65-20.5L52.65-20.5Q54.85-21.75 56.3-23.5 57.75-25.25 57.75-27.45L57.75-27.45 57.75-28.15Q57.75-30.2 56.57-31.28 55.4-32.35 53.45-32.35ZM53.25-2.65L53.25-2.65Q55.45-2.65 57.07-3.65 58.7-4.65 59.8-6.45L59.8-6.45 51.5-16.7Q49.25-15.55 48.12-13.98 47-12.4 47-9.85L47-9.85 47-8.4Q47-5.55 48.7-4.1 50.4-2.65 53.25-2.65Z" fill="#000000" data-fill-palette-color="secondary"></path><path d="M108.6 0L104.5 0 101.4-10.45 88.85-10.45 85.75 0 81.75 0 92.65-34.9 97.65-34.9 108.6 0ZM100.5-13.75L96.45-27 95.35-31.35 94.85-31.35 93.75-27 89.8-13.75 100.5-13.75Z" fill="#c8c8c8" data-fill-palette-color="accent"></path></g></svg></g></svg></g></svg></g></svg></g></svg></g><defs></defs></svg><rect width="395.52" height="157.378742023701" fill="none" stroke="none" visibility="hidden"></rect></g></svg></g></svg>